<svg clip-rule="evenodd" fill-rule="evenodd" stroke-linecap="round" stroke-linejoin="bevel" viewBox="0 0 16 16" xmlns="http://www.w3.org/2000/svg"><path d="m240 255c-32.915 0-60 27.085-60 60s27.085 60 60 60 60-27.085 60-60m-60-60 60-180m0 240 165-90m-165-150c0 82.288 74.484 150 165 150m-135-165c0 74.059 67.712 135 150 135m-150-135c0-24.686 20.314-45 45-45 82.288 0 150 60.941 150 135 0 24.686-20.314 45-45 45m-240 90c16.458 0 30 13.542 30 30m105-270c65.83 0 120 47.399 120 105" fill="none" stroke="#000" stroke-width="17.97" transform="matrix(.0423311 0 0 .0423311 -6.92173 -.254571)"/></svg>